<svg xmlns="http://www.w3.org/2000/svg" viewBox="0 0 128 150"><defs><style>.cls-1{fill:#fff;}</style></defs><g id="Laag_2" data-name="Laag 2"><g id="Laag_1-2" data-name="Laag 1"><rect class="cls-1" width="128" height="150" rx="13.3"/><path d="M41.5,101.51h45v-40h-45Zm5-35h35v30h-35Zm0,40h5v10h-5Zm30,0h5v10h-5Zm-45-40h5V89h-5Zm65,0V89h-5V66.51ZM80.41,41.14A22.45,22.45,0,0,1,86.5,56.51h-5a17.5,17.5,0,1,0-35,0h-5a22.4,22.4,0,0,1,6.09-15.37L43.48,37,47,33.49l4.38,4.39a22.45,22.45,0,0,1,25.2,0L81,33.49,84.52,37Z"/></g></g></svg>