<svg xmlns="http://www.w3.org/2000/svg" viewBox="0 0 128 150"><defs><style>.cls-1{fill:#fff;}</style></defs><g id="Laag_2" data-name="Laag 2"><g id="Laag_1-2" data-name="Laag 1"><rect class="cls-1" width="128" height="150" rx="13.3"/><path d="M80,30.12c-4.72,1.59-9.19,3.21-12.47,6.53s-5,8.3-4.47,15.5A2.1,2.1,0,0,0,65.53,54c4.9-1.11,9.7-3,13.09-6.63s5.15-8.87,4-15.66A1.88,1.88,0,0,0,80,30.12Zm-1.16,4.72c.22,4.39-1,7.45-3.15,9.75s-5.23,3.61-8.66,4.66c0-4.77,1.28-7.69,3.35-9.78S75.41,36.12,78.87,34.84ZM51,51C36.81,51,26.81,63,27,76a62.06,62.06,0,0,0,8.25,29.87,43.32,43.32,0,0,0,7.56,10C45.45,118.32,48.13,120,51,120a23.93,23.93,0,0,0,9-2.13c2.54-1,4.67-1.87,6-1.87s3.14.82,5.44,1.84A20.47,20.47,0,0,0,80,120c5,0,9.6-3.48,13.31-8.13A38.14,38.14,0,0,0,101,95.37a2,2,0,0,0-.82-2C94,89.49,89.06,84.4,89,78c0-4.89,4.46-10.62,10.28-15.47a2.07,2.07,0,0,0,.31-2.72C96.21,55.3,89.89,51,83,51c-3.53,0-6.84,1.33-9.81,2.56S67.58,55.85,65.94,56c-1.18,0-3.3-1-5.81-2.25S54.56,51,51,51Zm0,4c2.44,0,4.89,1,7.34,2.28S63.17,60,66,60c3.2-.31,6.21-1.71,8.72-2.75C77.61,56,80.53,55,83,55c4.47,0,9.25,2.86,12.16,5.9C89.66,65.78,85,71.51,85,78c0,8.77,5.72,13.57,11.72,17.81a35,35,0,0,1-6.53,13.56C86.9,113.48,83,116,80,116a16.85,16.85,0,0,1-6.94-1.81c-2.2-1-4.39-2.19-7.06-2.19s-5,1.17-7.5,2.16A20.56,20.56,0,0,1,51,116c-1.12,0-3.19-1-5.44-3.06a40.21,40.21,0,0,1-6.84-9.07A58.46,58.46,0,0,1,31,76c-.19-12,9.81-21,20-21Z"/></g></g></svg>