<svg xmlns="http://www.w3.org/2000/svg" viewBox="0 0 128 150"><defs><style>.cls-1{fill:#a8c686;}</style></defs><g id="Laag_2" data-name="Laag 2"><g id="Laag_1-2" data-name="Laag 1"><rect class="cls-1" width="128" height="150" rx="13.3"/><path d="M49.33,83.08c0-14.67,15.63-16.8,15.52-23.92A5.26,5.26,0,0,0,59.75,54c-3,0-7.77-.11-17.87,6.16V40.66a39,39,0,0,1,20-5.53c12.12,0,24.24,7.33,24.24,21,0,18.18-18.6,20.31-18.6,30.09v2.45H49.33ZM58.47,93c7,0,11.38,4.15,11.38,11s-4.36,11-11.38,11-11.38-4.15-11.38-11S51.45,93,58.47,93Z"/></g></g></svg>