<svg xmlns="http://www.w3.org/2000/svg" viewBox="0 0 128 150"><defs><style>.cls-1{fill:#fff;}</style></defs><g id="Laag_2" data-name="Laag 2"><g id="Laag_1-2" data-name="Laag 1"><rect class="cls-1" width="128" height="150" rx="13.3"/><path d="M26,38a6,6,0,0,0-6,6V94a6,6,0,0,0,6,6H55v8H52a2,2,0,0,0,0,4H76a2,2,0,0,0,0-4H73v-8h29a6,6,0,0,0,6-6V44a6,6,0,0,0-6-6Zm0,4h76a2,2,0,0,1,2,2V84H24V44A2,2,0,0,1,26,42ZM24,88h80v6a2,2,0,0,1-2,2H26a2,2,0,0,1-2-2Zm40,2a2,2,0,1,0,2,2A2,2,0,0,0,64,90Zm-5,10H69v8H59Z"/></g></g></svg>