<svg xmlns="http://www.w3.org/2000/svg" viewBox="0 0 128 150"><defs><style>.cls-1{fill:#fff;}</style></defs><g id="Laag_2" data-name="Laag 2"><g id="Laag_1-2" data-name="Laag 1"><rect class="cls-1" width="128" height="150" rx="13.3"/><path d="M83.72,27H44.28A10.18,10.18,0,0,0,34.11,37.18v75.64A10.18,10.18,0,0,0,44.28,123H83.72a10.18,10.18,0,0,0,10.17-10.17V37.18A10.18,10.18,0,0,0,83.72,27Zm5.47,85.81a5.47,5.47,0,0,1-5.47,5.48H44.28a5.48,5.48,0,0,1-5.48-5.48V37.18a5.48,5.48,0,0,1,5.48-5.48h8.61A3.13,3.13,0,0,0,56,34.64H72a3.14,3.14,0,0,0,3.13-2.94h8.6a5.48,5.48,0,0,1,5.48,5.48Z"/></g></g></svg>