<svg xmlns="http://www.w3.org/2000/svg" viewBox="0 0 128 150"><defs><style>.cls-1{fill:#fff;}</style></defs><g id="Laag_2" data-name="Laag 2"><g id="Laag_1-2" data-name="Laag 1"><rect class="cls-1" width="128" height="150" rx="13.3"/><path d="M94.5,92.5v-38A.47.47,0,0,0,94,54H34a.47.47,0,0,0-.5.5v38a.47.47,0,0,0,.5.5H94A.47.47,0,0,0,94.5,92.5Zm-1-.5h-59V55h59Z"/><path d="M107,95.9H98.5V51.5A2.48,2.48,0,0,0,96,49H32a2.48,2.48,0,0,0-2.5,2.5V95.9H21a1.54,1.54,0,0,0-1.5,1.5v1.1c0,1.2,7.4,2.5,7.5,2.5h74c.1,0,7.5-1.3,7.5-2.5V97.4A1.54,1.54,0,0,0,107,95.9ZM30.5,51.5A1.54,1.54,0,0,1,32,50H96a1.54,1.54,0,0,1,1.5,1.5V95.9H73a.76.76,0,0,0-.4.2c-.1.1-.1.2-.1.4v.1a.47.47,0,0,1-.5.5H56a.47.47,0,0,1-.5-.5v-.1a.6.6,0,0,0-.1-.4.52.52,0,0,0-.4-.2H30.5Zm77,46.8A36.89,36.89,0,0,1,101,100H27a36.89,36.89,0,0,1-6.5-1.7v-.9a.47.47,0,0,1,.5-.5h8.8c.1,0,.1.1.2.1s.2,0,.2-.1H54.5A1.6,1.6,0,0,0,55.9,98h16a1.39,1.39,0,0,0,1.4-1.1H97.7c.1,0,.1.1.2.1s.2,0,.2-.1H107a.47.47,0,0,1,.5.5Z"/></g></g></svg>